<svg xmlns="http://www.w3.org/2000/svg" data-name="Layer 1" viewBox="0 0 53 53"><path d="M9.85 2.5a1 1 0 0 0-1 1v46a1 1 0 0 0 1 1h33.3a1 1 0 0 0 1-1v-46a1 1 0 0 0-1-1Zm1 2h31.3v12.24h-31.3Zm0 44V18.74h31.3V48.5Z"/><path d="M24.31 20.45H13.7a1 1 0 0 0-1 1v10.6a1 1 0 0 0 1 1h10.61a1 1 0 0 0 1-1v-10.6a1 1 0 0 0-1-1zm-1 10.6H14.7v-8.6h8.61zm15.99-10.6H28.69a1 1 0 0 0-1 1v10.6a1 1 0 0 0 1 1H39.3a1 1 0 0 0 1-1v-10.6a1 1 0 0 0-1-1zm-1 10.6h-8.61v-8.6h8.61zm-13.99 3.37H13.7a1 1 0 0 0-1 1V46a1 1 0 0 0 1 1h10.61a1 1 0 0 0 1-1V35.42a1 1 0 0 0-1-1zm-1 10.6H14.7v-8.6h8.61zm15.99-10.6H28.69a1 1 0 0 0-1 1V46a1 1 0 0 0 1 1H39.3a1 1 0 0 0 1-1V35.42a1 1 0 0 0-1-1zM38.3 45h-8.61v-8.6h8.61z"/><path d="M17.4 27.55h.6v.6a1 1 0 0 0 2 0v-.6h.6a1 1 0 0 0 0-2H20V25a1 1 0 0 0-2 0v.6h-.6a1 1 0 0 0 0 2zm-.24 15.01a1 1 0 0 0 .71.29 1 1 0 0 0 .71-.29l.42-.43.43.43a1 1 0 0 0 1.41-1.42l-.42-.42.42-.43a1 1 0 0 0-1.41-1.41l-.43.42-.42-.42a1 1 0 0 0-1.42 0 1 1 0 0 0 0 1.41l.43.43-.43.42a1 1 0 0 0 0 1.42zM32.4 27.55h3.2a1 1 0 0 0 0-2h-3.2a1 1 0 0 0 0 2zm0 15.45h3.2a1 1 0 0 0 0-2h-3.2a1 1 0 0 0 0 2zm0-2.57h3.2a1 1 0 0 0 0-2h-3.2a1 1 0 0 0 0 2zm6.9-34.2H13.7a1 1 0 0 0-1 1V14a1 1 0 0 0 1 1h25.6a1 1 0 0 0 1-1V7.23a1 1 0 0 0-1-1zm-1 6.77H14.7V8.23h23.6z"/></svg>