<svg xmlns="http://www.w3.org/2000/svg" enable-background="new 0 0 128 128" viewBox="0 0 128 128"><path fill="#343433" d="M84.3,24.9H21.5c-6.3,0-11.4,4.7-11.4,10.5v78.9c0,6,5.4,11.4,11.4,11.4h62.8c5.8,0,10.5-5.1,10.5-11.4V35.4
		C94.7,29.3,90.3,24.9,84.3,24.9z M88.1,114.3c0,2.3-1.5,4.8-3.8,4.8H21.5c-2.4,0-4.8-2.4-4.8-4.8V35.4c0-2.4,2.5-3.8,4.8-3.8h62.8
		c2.3,0,3.8,1.5,3.8,3.8V114.3z"/><path fill="#343433" d="M107.5,2.3H44.7c-6.3,0-11.4,4.7-11.4,10.5v6h6.7v-6c0-2.3,2.5-3.8,4.8-3.8h62.8c2.3,0,3.8,1.5,3.8,3.8v78.9
		c0,2.3-1.5,4.8-3.8,4.8h-6.6v6.7h6.6c5.8,0,10.5-5.1,10.5-11.4V12.7C117.9,6.7,113.5,2.3,107.5,2.3z"/><path fill="#343433" d="M74.8 67.5H29.9c-.8 0-1.4.6-1.4 1.4 0 .8.6 1.4 1.4 1.4h44.8c.9 0 1.5-.6 1.5-1.4C76.3 68.1 75.7 67.5 74.8 67.5zM29.9 80.4c-.8 0-1.4.6-1.4 1.4 0 .8.6 1.4 1.4 1.4h44.8c.9 0 1.5-.6 1.5-1.4 0-.8-.6-1.4-1.4-1.4H29.9zM76.3 40.3H28.5v17.1h47.8V40.3zM73.5 54.6H31.3V43.2h42.1V54.6zM75 93.2H56.7c-.8 0-1.4.6-1.4 1.4s.6 1.4 1.4 1.4h18.2c.9 0 1.5-.6 1.5-1.4C76.4 93.8 75.8 93.2 75 93.2zM75 107.5H56.7c-.8 0-1.4.6-1.4 1.4 0 .8.6 1.4 1.4 1.4h18.2c.9 0 1.5-.6 1.5-1.4C76.4 108.1 75.8 107.5 75 107.5zM28.4 110.4h23.1V93.2H28.4V110.4zM31.3 96.1h17.4v11.4H31.3V96.1z"/></svg>